<svg width="24" height="24" viewBox="0 0 24 24" fill="none" xmlns="http://www.w3.org/2000/svg">
<path d="M15.3482 18.6924L15.4796 18.6155L15.227 18.184C15.4796 18.6155 15.4796 18.6155 15.4797 18.6154L15.4799 18.6153L15.4804 18.615L15.4822 18.614L15.4883 18.6104L15.5108 18.597C15.5301 18.5855 15.5581 18.5688 15.5934 18.5473C15.6639 18.5045 15.7642 18.4427 15.8843 18.3662C16.1239 18.2137 16.446 18.0005 16.7715 17.7603C17.094 17.5222 17.434 17.2471 17.7012 16.9703C17.8347 16.8319 17.9608 16.6822 18.0579 16.5267C18.1514 16.3769 18.2417 16.1844 18.2541 15.9672C18.2667 15.7585 18.2054 15.5504 18.1363 15.3803C18.063 15.1995 17.9594 15.0103 17.8398 14.8242C17.6005 14.4516 17.2728 14.0544 16.9169 13.7104C16.5656 13.3708 16.1582 13.0551 15.7536 12.877C15.367 12.7068 14.8175 12.5991 14.3824 12.9848L14.3805 12.9865C14.0132 13.3152 13.7616 13.6742 13.5854 13.9256C13.537 13.9946 13.4944 14.0554 13.4565 14.1054C13.3592 14.2339 13.2979 14.2912 13.2499 14.3205C13.2163 14.341 13.168 14.3617 13.0614 14.355L13.0582 14.3548C12.8226 14.3415 12.5404 14.2049 12.1883 13.9074C11.8409 13.614 11.4912 13.2221 11.1092 12.7924C10.7315 12.3649 10.3848 11.9706 10.1343 11.59C9.88023 11.204 9.77609 10.9057 9.78917 10.67C9.79546 10.5652 9.82162 10.5202 9.84631 10.4891C9.88177 10.4445 9.94668 10.3903 10.0867 10.3086C10.1401 10.2774 10.2044 10.2429 10.2769 10.2039C10.5484 10.0582 10.9357 9.85017 11.3063 9.52063C11.7406 9.13503 11.7024 8.57799 11.5802 8.17231C11.4526 7.74869 11.1883 7.30628 10.8934 6.91704C10.5946 6.52266 10.2392 6.14999 9.8974 5.86787C9.72659 5.72691 9.55072 5.60154 9.37956 5.50713C9.21773 5.41786 9.01799 5.33243 8.8089 5.31989L8.80787 5.31984C8.59079 5.30727 8.389 5.37448 8.22881 5.45006C8.06288 5.52835 7.89941 5.6359 7.74627 5.75225C7.43989 5.98504 7.12698 6.29006 6.85287 6.582C6.57628 6.87658 6.3271 7.1709 6.14777 7.39051C6.05785 7.50063 5.98487 7.59273 5.9341 7.65767C5.9087 7.69015 5.88883 7.71588 5.87513 7.73371L5.85928 7.75442L5.85497 7.76008L5.85375 7.76169L5.85338 7.76219L5.85325 7.76236C5.8532 7.76242 5.85316 7.76247 6.25201 8.064L5.85316 7.76247L5.76191 7.88318L5.7529 8.03423C5.69808 8.95355 6.07632 10.2731 6.61262 11.5214C7.15616 12.7865 7.90556 14.0783 8.67866 14.9515L8.67922 14.9521C9.45451 15.8247 10.6483 16.7226 11.8394 17.4129C13.0148 18.094 14.2789 18.6265 15.1962 18.6831L15.3482 18.6924ZM0.5 12C0.5 5.64914 5.64914 0.5 12 0.5C18.3509 0.5 23.5 5.64914 23.5 12C23.5 18.3509 18.3509 23.5 12 23.5C5.64914 23.5 0.5 18.3509 0.5 12Z" fill="white" stroke="black"/>
</svg>
