<svg width="25" height="35" viewBox="0 0 25 35" fill="none" xmlns="http://www.w3.org/2000/svg">
<g filter="url(#filter0_d_5438_5421)">
<mask id="path-1-outside-1_5438_5421" maskUnits="userSpaceOnUse" x="0" y="-1" width="25" height="34" fill="black">
<rect fill="white" y="-1" width="25" height="34"/>
<path d="M3.56 32C2.97333 32 2.48 31.8 2.08 31.4C1.68 31 1.48 30.5067 1.48 29.92V2.84C1.48 2.22667 1.68 1.73333 2.08 1.36C2.48 0.959999 2.97333 0.759999 3.56 0.759999H21.64C22.2533 0.759999 22.7467 0.946666 23.12 1.32C23.4933 1.66667 23.68 2.13333 23.68 2.72C23.68 3.28 23.4933 3.73333 23.12 4.08C22.7467 4.42666 22.2533 4.6 21.64 4.6H5.64V14.32H17.12C17.7333 14.32 18.2267 14.5067 18.6 14.88C18.9733 15.2267 19.16 15.68 19.16 16.24C19.16 16.8 18.9733 17.2667 18.6 17.64C18.2267 17.9867 17.7333 18.16 17.12 18.16H5.64V29.92C5.64 30.5067 5.44 31 5.04 31.4C4.64 31.8 4.14667 32 3.56 32Z"/>
</mask>
<path d="M3.56 32C2.97333 32 2.48 31.8 2.08 31.4C1.68 31 1.48 30.5067 1.48 29.92V2.84C1.48 2.22667 1.68 1.73333 2.08 1.36C2.48 0.959999 2.97333 0.759999 3.56 0.759999H21.64C22.2533 0.759999 22.7467 0.946666 23.12 1.32C23.4933 1.66667 23.68 2.13333 23.68 2.72C23.68 3.28 23.4933 3.73333 23.12 4.08C22.7467 4.42666 22.2533 4.6 21.64 4.6H5.64V14.32H17.12C17.7333 14.32 18.2267 14.5067 18.6 14.88C18.9733 15.2267 19.16 15.68 19.16 16.24C19.16 16.8 18.9733 17.2667 18.6 17.64C18.2267 17.9867 17.7333 18.16 17.12 18.16H5.64V29.92C5.64 30.5067 5.44 31 5.04 31.4C4.64 31.8 4.14667 32 3.56 32Z" fill="#0066FF"/>
<path d="M2.08 1.36L2.76232 2.09105L2.77492 2.07929L2.78711 2.06711L2.08 1.36ZM23.12 1.32L22.4129 2.02711L22.426 2.0402L22.4395 2.05279L23.12 1.32ZM23.12 4.08L23.8005 4.81279L23.8005 4.81279L23.12 4.08ZM5.64 4.6V3.6H4.64V4.6H5.64ZM5.64 14.32H4.64V15.32H5.64V14.32ZM18.6 14.88L17.8929 15.5871L17.906 15.6002L17.9195 15.6128L18.6 14.88ZM18.6 17.64L19.2805 18.3728L19.294 18.3602L19.3071 18.3471L18.6 17.64ZM5.64 18.16V17.16H4.64V18.16H5.64ZM5.04 31.4L4.33289 30.6929L4.33289 30.6929L5.04 31.4ZM3.56 31C3.22757 31 2.99194 30.8977 2.78711 30.6929L1.37289 32.1071C1.96806 32.7023 2.7191 33 3.56 33V31ZM2.78711 30.6929C2.58227 30.4881 2.48 30.2524 2.48 29.92H0.48C0.48 30.7609 0.777731 31.5119 1.37289 32.1071L2.78711 30.6929ZM2.48 29.92V2.84H0.48V29.92H2.48ZM2.48 2.84C2.48 2.4668 2.59053 2.25139 2.76232 2.09105L1.39768 0.628943C0.769468 1.21528 0.48 1.98653 0.48 2.84H2.48ZM2.78711 2.06711C2.99194 1.86227 3.22757 1.76 3.56 1.76V-0.240001C2.7191 -0.240001 1.96806 0.0577297 1.37289 0.652892L2.78711 2.06711ZM3.56 1.76H21.64V-0.240001H3.56V1.76ZM21.64 1.76C22.0345 1.76 22.2575 1.87173 22.4129 2.02711L23.8271 0.612892C23.2358 0.0216048 22.4722 -0.240001 21.64 -0.240001V1.76ZM22.4395 2.05279C22.5775 2.18093 22.68 2.36518 22.68 2.72H24.68C24.68 1.90149 24.4091 1.1524 23.8005 0.587206L22.4395 2.05279ZM22.68 2.72C22.68 3.0326 22.5877 3.20966 22.4395 3.34721L23.8005 4.81279C24.399 4.257 24.68 3.52739 24.68 2.72H22.68ZM22.4396 3.3472C22.2875 3.48837 22.0553 3.6 21.64 3.6V5.6C22.4513 5.6 23.2058 5.36496 23.8005 4.81279L22.4396 3.3472ZM21.64 3.6H5.64V5.6H21.64V3.6ZM4.64 4.6V14.32H6.64V4.6H4.64ZM5.64 15.32H17.12V13.32H5.64V15.32ZM17.12 15.32C17.5145 15.32 17.7375 15.4317 17.8929 15.5871L19.3071 14.1729C18.7158 13.5816 17.9522 13.32 17.12 13.32V15.32ZM17.9195 15.6128C18.0677 15.7503 18.16 15.9274 18.16 16.24H20.16C20.16 15.4326 19.879 14.703 19.2805 14.1472L17.9195 15.6128ZM18.16 16.24C18.16 16.5526 18.0664 16.7594 17.8929 16.9329L19.3071 18.3471C19.8802 17.774 20.16 17.0474 20.16 16.24H18.16ZM17.9195 16.9072C17.7675 17.0484 17.5353 17.16 17.12 17.16V19.16C17.9313 19.16 18.6858 18.925 19.2805 18.3728L17.9195 16.9072ZM17.12 17.16H5.64V19.16H17.12V17.16ZM4.64 18.16V29.92H6.64V18.16H4.64ZM4.64 29.92C4.64 30.2524 4.53773 30.4881 4.33289 30.6929L5.74711 32.1071C6.34227 31.5119 6.64 30.7609 6.64 29.92H4.64ZM4.33289 30.6929C4.12806 30.8977 3.89243 31 3.56 31V33C4.4009 33 5.15194 32.7023 5.74711 32.1071L4.33289 30.6929Z" fill="white" mask="url(#path-1-outside-1_5438_5421)"/>
</g>
<defs>
<filter id="filter0_d_5438_5421" x="0.47998" y="0.759766" width="24.2002" height="34.2402" filterUnits="userSpaceOnUse" color-interpolation-filters="sRGB">
<feFlood flood-opacity="0" result="BackgroundImageFix"/>
<feColorMatrix in="SourceAlpha" type="matrix" values="0 0 0 0 0 0 0 0 0 0 0 0 0 0 0 0 0 0 127 0" result="hardAlpha"/>
<feOffset dy="2"/>
<feGaussianBlur stdDeviation="0.5"/>
<feComposite in2="hardAlpha" operator="out"/>
<feColorMatrix type="matrix" values="0 0 0 0 0 0 0 0 0 0 0 0 0 0 0 0 0 0 0.25 0"/>
<feBlend mode="normal" in2="BackgroundImageFix" result="effect1_dropShadow_5438_5421"/>
<feBlend mode="normal" in="SourceGraphic" in2="effect1_dropShadow_5438_5421" result="shape"/>
</filter>
</defs>
</svg>
