<svg width="151" height="151" viewBox="0 0 151 151" fill="none" xmlns="http://www.w3.org/2000/svg">
<path d="M75.5 150C116.645 150 150 116.645 150 75.5C150 34.3548 116.645 1 75.5 1C34.3548 1 1 34.3548 1 75.5C1 116.645 34.3548 150 75.5 150Z" fill="white" stroke="#0066FF"/>
<path d="M52.368 56.2306C52.1764 56.3842 50.6223 60.1596 48.898 64.6375C46.0454 72.1224 45.8112 72.8029 46.088 73.2858C46.4925 74.054 50.7288 75.6784 51.4313 75.3491C51.7932 75.1735 52.5383 73.4394 55.0502 66.8544C57.9667 59.1938 58.1796 58.5353 57.9028 58.0963C57.69 57.7671 56.8171 57.3281 55.2844 56.7793C52.6447 55.8355 52.8363 55.8794 52.368 56.2306Z" fill="#0066FF"/>
<path d="M94.5821 57.5037C92.6662 58.6451 92.1553 59.15 92.3256 59.7646C92.3681 59.9621 94.2202 63.518 96.4129 67.6227C99.159 72.8029 100.543 75.1735 100.883 75.3272C101.288 75.5247 101.714 75.3711 103.629 74.2955C105.247 73.3736 105.907 72.8688 105.992 72.5176C106.099 72.1225 105.098 70.1031 101.99 64.2643L97.8604 56.516L97.1154 56.4721C96.5832 56.4501 95.9019 56.7355 94.5821 57.5037Z" fill="#0066FF"/>
<path d="M77.9775 58.2277C77.4453 58.3814 76.0616 59.0399 74.8907 59.6764C72.251 61.1032 65.8859 65.4493 64.4809 66.7663C63.5229 67.6443 63.4378 67.8199 63.4165 68.7857C63.3952 69.6857 63.4804 69.9052 64.0126 70.3881C65.0344 71.288 65.8007 71.0466 71.7188 68.0614C76.1041 65.8225 77.0834 65.4054 77.4666 65.603C77.722 65.7127 80.7449 68.8516 84.1723 72.5831C87.6209 76.2927 91.027 79.9803 91.7295 80.7485L93.0494 82.1753L93.7732 81.6046C95.9658 79.8925 99.0526 76.3366 99.0526 75.5464C99.0526 75.3927 98.3501 73.944 97.4986 72.3636C96.6258 70.7612 94.944 67.5785 93.7306 65.2957C92.5172 62.9909 91.4954 61.0813 91.4741 61.0374C91.4315 60.9935 90.8993 61.1691 90.3032 61.4544C88.8131 62.1129 88.1319 61.9593 85.7689 60.4886C82.0009 58.1399 80.1276 57.5912 77.9775 58.2277Z" fill="#0066FF"/>
<path d="M69.8878 58.9742C69.7175 59.0181 68.3338 59.6766 66.8011 60.4229C64.2252 61.696 63.9272 61.7838 62.5222 61.7838C61.2023 61.7838 60.883 61.696 59.9463 61.1033L58.8607 60.4009L57.4131 64.2861C56.6254 66.4152 55.3694 69.6639 54.6243 71.5296L53.2832 74.9319L53.7515 75.4806C54.007 75.7879 55.0288 76.9074 56.0294 77.961L57.8175 79.8487L58.7755 79.3219C59.3077 79.0366 60.0315 78.7951 60.3934 78.7951C61.7345 78.7951 63.1183 80.0682 63.6079 81.7145C63.693 82.0657 63.9059 81.9559 65.0555 80.9243C65.7793 80.2658 66.5882 79.6292 66.8437 79.4756C67.5675 79.1024 69.0576 79.1902 69.7601 79.6731C70.5052 80.156 71.378 81.5608 71.378 82.2413C71.378 82.7022 71.4206 82.7022 71.9741 82.3949C73.2939 81.6925 75.1673 82.2852 75.9549 83.6461C76.1891 84.0631 76.4233 84.9631 76.4871 85.6874C76.5936 86.9166 76.6361 87.0044 77.2109 87.1581C78.5733 87.5312 79.5313 89.0458 79.5526 90.8677C79.5739 92.0749 79.5739 92.0749 80.2764 92.1408C81.1492 92.2286 81.873 91.7676 82.2349 90.8896C82.7458 89.5946 82.4052 88.8921 79.8932 86.1045C77.5302 83.4705 77.1683 82.7681 77.9347 82.3291C78.2327 82.1535 78.8288 82.6803 81.5962 85.6216C84.4914 88.6726 84.981 89.1336 85.5558 89.1116C86.8544 89.1116 87.9826 87.5093 87.642 86.1484C87.5569 85.8191 86.3222 84.2607 84.8746 82.6803C83.427 81.0779 82.2349 79.6292 82.2349 79.4317C82.2349 78.9927 82.7458 78.5098 83.1503 78.6195C83.2993 78.6634 84.7469 80.156 86.3648 81.9779C87.9826 83.7778 89.5154 85.3801 89.7708 85.5338C90.7927 86.1484 92.4744 85.5118 92.7512 84.3924C92.8789 83.8656 92.3041 83.1851 86.1306 76.5562C82.4052 72.5613 78.8288 68.72 78.1902 68.0176L77.0193 66.7445L71.8676 69.4005C66.0986 72.3857 65.1193 72.671 63.7569 71.793C61.99 70.6297 61.6707 67.9298 63.1395 66.3055C63.395 66.0421 65.609 64.4178 68.0358 62.7276C70.4626 61.0155 72.5063 59.5449 72.5701 59.4571C72.8256 59.0181 70.7819 58.6449 69.8878 58.9742Z" fill="#0066FF"/>
<path d="M58.7759 80.8363C57.6263 81.7363 57.2431 82.5265 57.4347 83.5581C57.7541 85.38 59.5635 85.9507 61.075 84.6995C61.5433 84.3264 62.0117 83.8215 62.1607 83.5581C62.7355 82.4826 62.331 80.9461 61.3517 80.4193C60.4363 79.9364 59.7764 80.0461 58.7759 80.8363Z" fill="#0066FF"/>
<path d="M66.0134 81.6928C65.2683 82.3293 64.1613 83.361 63.5653 83.9536C62.6073 84.8975 62.437 85.2048 62.437 85.8852C62.437 87.0266 62.8202 87.729 63.6504 88.1241C64.2252 88.4095 64.5232 88.4314 65.0129 88.2558C65.7154 88.0144 69.5685 84.656 69.9091 84.0414C70.0155 83.8219 70.1007 83.2293 70.1007 82.7025C70.1007 81.4293 69.2917 80.5513 68.1209 80.5513C67.5036 80.5513 67.0991 80.7708 66.0134 81.6928Z" fill="#0066FF"/>
<path d="M72.3362 83.6683C71.6337 84.0853 67.1419 88.2339 66.9077 88.6729C66.5458 89.3753 66.6523 90.7582 67.1206 91.3728C67.6954 92.1191 68.7811 92.3386 69.59 91.8776C70.5693 91.3289 74.8694 87.2901 75.1675 86.6096C76.0403 84.7438 74.0392 82.6586 72.3362 83.6683Z" fill="#0066FF"/>
<path d="M75.6358 88.4751C74.9758 88.7604 72.9322 90.7799 72.5277 91.5701C71.6336 93.3041 72.9748 95.3455 74.7204 94.9504C75.1036 94.8626 75.9338 94.1821 76.8279 93.2602C78.2542 91.7896 78.2968 91.7018 78.2968 90.6482C78.2968 89.7702 78.1903 89.4629 77.7646 89.0238C77.1259 88.3653 76.3596 88.1678 75.6358 88.4751Z" fill="#0066FF"/>
</svg>
